{
  "tempo": 120,
  "time_signature": "4/4",
  "length_bars": 4,
  "tracks": [
    {
      "name": "toy_piano",
      "channel": 4,
      "notes": [
        {
          "bar": 1,
          "beat": 1.0,
          "pitch": 60,
          "duration": 1.0,
          "velocity": 80
        },
        {
          "bar": 1,
          "beat": 2.0,
          "pitch": 60,
          "duration": 1.0,
          "velocity": 80
        },
        {
          "bar": 1,
          "beat": 3.0,
          "pitch": 64,
          "duration": 1.0,
          "velocity": 80
        },
        {
          "bar": 1,
          "beat": 4.0,
          "pitch": 64,
          "duration": 1.0,
          "velocity": 80
        },
        {
          "bar": 2,
          "beat": 1.0,
          "pitch": 67,
          "duration": 1.0,
          "velocity": 80
        },
        {
          "bar": 2,
          "beat": 2.0,
          "pitch": 67,
          "duration": 1.0,
          "velocity": 80
        },
        {
          "bar": 2,
          "beat": 3.0,
          "pitch": 64,
          "duration": 1.0,
          "velocity": 80
        },
        {
          "bar": 2,
          "beat": 4.0,
          "pitch": 60,
          "duration": 1.0,
          "velocity": 80
        },
        {
          "bar": 3,
          "beat": 1.0,
          "pitch": 60,
          "duration": 1.0,
          "velocity": 80
        },
        {
          "bar": 3,
          "beat": 2.0,
          "pitch": 64,
          "duration": 1.0,
          "velocity": 80
        },
        {
          "bar": 3,
          "beat": 3.0,
          "pitch": 64,
          "duration": 1.0,
          "velocity": 80
        },
        {
          "bar": 3,
          "beat": 4.0,
          "pitch": 67,
          "duration": 1.0,
          "velocity": 80
        },
        {
          "bar": 4,
          "beat": 1.0,
          "pitch": 60,
          "duration": 1.0,
          "velocity": 80
        }
      ]
    },
    {
      "name": "ukulele",
      "channel": 6,
      "notes": [
        {
          "bar": 1,
          "beat": 1.0,
          "pitch": 48,
          "duration": 0.5,
          "velocity": 70
        },
        {
          "bar": 1,
          "beat": 2.0,
          "pitch": 48,
          "duration": 0.5,
          "velocity": 70
        },
        {
          "bar": 1,
          "beat": 3.0,
          "pitch": 48,
          "duration": 0.5,
          "velocity": 70
        },
        {
          "bar": 1,
          "beat": 4.0,
          "pitch": 48,
          "duration": 0.5,
          "velocity": 70
        },
        {
          "bar": 2,
          "beat": 1.0,
          "pitch": 53,
          "duration": 0.5,
          "velocity": 70
        },
        {
          "bar": 2,
          "beat": 2.0,
          "pitch": 53,
          "duration": 0.5,
          "velocity": 70
        },
        {
          "bar": 2,
          "beat": 3.0,
          "pitch": 53,
          "duration": 0.5,
          "velocity": 70
        },
        {
          "bar": 2,
          "beat": 4.0,
          "pitch": 53,
          "duration": 0.5,
          "velocity": 70
        },
        {
          "bar": 3,
          "beat": 1.0,
          "pitch": 55,
          "duration": 0.5,
          "velocity": 70
        },
        {
          "bar": 3,
          "beat": 2.0,
          "pitch": 55,
          "duration": 0.5,
          "velocity": 70
        },
        {
          "bar": 3,
          "beat": 3.0,
          "pitch": 55,
          "duration": 0.5,
          "velocity": 70
        },
        {
          "bar": 3,
          "beat": 4.0,
          "pitch": 55,
          "duration": 0.5,
          "velocity": 70
        },
        {
          "bar": 4,
          "beat": 1.0,
          "pitch": 48,
          "duration": 0.5,
          "velocity": 70
        },
        {
          "bar": 4,
          "beat": 2.0,
          "pitch": 48,
          "duration": 0.5,
          "velocity": 70
        },
        {
          "bar": 4,
          "beat": 3.0,
          "pitch": 48,
          "duration": 0.5,
          "velocity": 70
        },
        {
          "bar": 4,
          "beat": 4.0,
          "pitch": 48,
          "duration": 0.5,
          "velocity": 70
        }
      ]
    },
    {
      "name": "glockenspiel",
      "channel": 0,
      "notes": [
        {
          "bar": 1,
          "beat": 1.0,
          "pitch": 72,
          "duration": 0.5,
          "velocity": 65
        },
        {
          "bar": 3,
          "beat": 1.0,
          "pitch": 72,
          "duration": 0.5,
          "velocity": 65
        },
        {
          "bar": 4,
          "beat": 3.0,
          "pitch": 76,
          "duration": 0.5,
          "velocity": 65
        }
      ]
    },
    {
      "name": "drumkit",
      "channel": 13,
      "notes": [
        {
          "bar": 1,
          "beat": 1.0,
          "pitch": 8,
          "duration": 0.25,
          "velocity": 55
        },
        {
          "bar": 1,
          "beat": 1.5,
          "pitch": 8,
          "duration": 0.25,
          "velocity": 55
        },
        {
          "bar": 1,
          "beat": 2.0,
          "pitch": 8,
          "duration": 0.25,
          "velocity": 55
        },
        {
          "bar": 1,
          "beat": 2.5,
          "pitch": 8,
          "duration": 0.25,
          "velocity": 55
        },
        {
          "bar": 1,
          "beat": 3.0,
          "pitch": 8,
          "duration": 0.25,
          "velocity": 55
        },
        {
          "bar": 1,
          "beat": 3.5,
          "pitch": 8,
          "duration": 0.25,
          "velocity": 55
        },
        {
          "bar": 1,
          "beat": 4.0,
          "pitch": 8,
          "duration": 0.25,
          "velocity": 55
        },
        {
          "bar": 1,
          "beat": 4.5,
          "pitch": 8,
          "duration": 0.25,
          "velocity": 55
        },
        {
          "bar": 1,
          "beat": 1.0,
          "pitch": 2,
          "duration": 0.25,
          "velocity": 60
        },
        {
          "bar": 1,
          "beat": 3.0,
          "pitch": 2,
          "duration": 0.25,
          "velocity": 60
        },
        {
          "bar": 2,
          "beat": 1.0,
          "pitch": 8,
          "duration": 0.25,
          "velocity": 55
        },
        {
          "bar": 2,
          "beat": 1.5,
          "pitch": 8,
          "duration": 0.25,
          "velocity": 55
        },
        {
          "bar": 2,
          "beat": 2.0,
          "pitch": 8,
          "duration": 0.25,
          "velocity": 55
        },
        {
          "bar": 2,
          "beat": 2.5,
          "pitch": 8,
          "duration": 0.25,
          "velocity": 55
        },
        {
          "bar": 2,
          "beat": 3.0,
          "pitch": 8,
          "duration": 0.25,
          "velocity": 55
        },
        {
          "bar": 2,
          "beat": 3.5,
          "pitch": 8,
          "duration": 0.25,
          "velocity": 55
        },
        {
          "bar": 2,
          "beat": 4.0,
          "pitch": 8,
          "duration": 0.25,
          "velocity": 55
        },
        {
          "bar": 2,
          "beat": 4.5,
          "pitch": 8,
          "duration": 0.25,
          "velocity": 55
        },
        {
          "bar": 2,
          "beat": 1.0,
          "pitch": 2,
          "duration": 0.25,
          "velocity": 60
        },
        {
          "bar": 2,
          "beat": 3.0,
          "pitch": 2,
          "duration": 0.25,
          "velocity": 60
        },
        {
          "bar": 3,
          "beat": 1.0,
          "pitch": 8,
          "duration": 0.25,
          "velocity": 55
        },
        {
          "bar": 3,
          "beat": 1.5,
          "pitch": 8,
          "duration": 0.25,
          "velocity": 55
        },
        {
          "bar": 3,
          "beat": 2.0,
          "pitch": 8,
          "duration": 0.25,
          "velocity": 55
        },
        {
          "bar": 3,
          "beat": 2.5,
          "pitch": 8,
          "duration": 0.25,
          "velocity": 55
        },
        {
          "bar": 3,
          "beat": 3.0,
          "pitch": 8,
          "duration": 0.25,
          "velocity": 55
        },
        {
          "bar": 3,
          "beat": 3.5,
          "pitch": 8,
          "duration": 0.25,
          "velocity": 55
        },
        {
          "bar": 3,
          "beat": 4.0,
          "pitch": 8,
          "duration": 0.25,
          "velocity": 55
        },
        {
          "bar": 3,
          "beat": 4.5,
          "pitch": 8,
          "duration": 0.25,
          "velocity": 55
        },
        {
          "bar": 3,
          "beat": 1.0,
          "pitch": 2,
          "duration": 0.25,
          "velocity": 60
        },
        {
          "bar": 3,
          "beat": 3.0,
          "pitch": 2,
          "duration": 0.25,
          "velocity": 60
        },
        {
          "bar": 4,
          "beat": 1.0,
          "pitch": 8,
          "duration": 0.25,
          "velocity": 55
        },
        {
          "bar": 4,
          "beat": 1.5,
          "pitch": 8,
          "duration": 0.25,
          "velocity": 55
        },
        {
          "bar": 4,
          "beat": 2.0,
          "pitch": 8,
          "duration": 0.25,
          "velocity": 55
        },
        {
          "bar": 4,
          "beat": 2.5,
          "pitch": 8,
          "duration": 0.25,
          "velocity": 55
        },
        {
          "bar": 4,
          "beat": 3.0,
          "pitch": 8,
          "duration": 0.25,
          "velocity": 55
        },
        {
          "bar": 4,
          "beat": 3.5,
          "pitch": 8,
          "duration": 0.25,
          "velocity": 55
        },
        {
          "bar": 4,
          "beat": 4.0,
          "pitch": 8,
          "duration": 0.25,
          "velocity": 55
        },
        {
          "bar": 4,
          "beat": 4.5,
          "pitch": 8,
          "duration": 0.25,
          "velocity": 55
        },
        {
          "bar": 4,
          "beat": 1.0,
          "pitch": 2,
          "duration": 0.25,
          "velocity": 60
        },
        {
          "bar": 4,
          "beat": 3.0,
          "pitch": 2,
          "duration": 0.25,
          "velocity": 60
        }
      ]
    }
  ]
}